<svg id="svg" version="1.1" xmlns="http://www.w3.org/2000/svg" xmlns:xlink="http://www.w3.org/1999/xlink" width="400" height="247.10424710424712" viewBox="0, 0, 400,247.10424710424712"><g id="svgg"><path id="path0" d="M209.518 42.269 C 204.116 42.903,197.194 46.414,191.842 51.236 C 189.890 52.994,184.966 59.242,183.457 61.875 C 182.196 64.075,180.675 66.915,180.230 67.900 C 179.975 68.464,179.413 69.688,178.981 70.619 C 178.550 71.550,178.096 72.562,177.973 72.868 C 177.851 73.174,177.649 73.674,177.526 73.980 C 177.180 74.836,176.970 75.457,176.753 76.267 C 176.644 76.675,176.315 77.787,176.022 78.739 C 175.335 80.970,174.209 85.248,173.809 87.145 C 173.637 87.960,173.405 88.850,173.293 89.122 C 173.182 89.394,173.015 90.340,172.924 91.224 C 172.832 92.108,172.658 93.665,172.536 94.685 C 171.594 102.586,171.597 112.432,172.543 120.148 C 172.668 121.168,172.840 122.614,172.926 123.362 C 173.144 125.254,174.892 132.584,175.756 135.229 C 176.001 135.977,176.340 137.089,176.510 137.701 C 177.212 140.229,177.392 140.687,179.454 145.190 C 179.876 146.114,180.222 146.919,180.222 146.979 C 180.222 147.039,180.737 148.008,181.367 149.131 C 181.996 150.255,182.829 151.767,183.218 152.492 C 183.877 153.721,184.841 155.217,185.157 155.501 C 185.232 155.569,185.896 156.459,186.631 157.478 C 188.556 160.147,191.920 163.713,194.067 165.358 C 196.423 167.164,198.914 168.850,199.224 168.850 C 199.356 168.850,199.501 168.934,199.547 169.036 C 199.626 169.214,201.496 170.161,202.658 170.612 C 202.964 170.731,203.464 170.937,203.770 171.070 C 207.521 172.702,215.332 173.224,219.117 172.095 C 219.548 171.967,220.346 171.732,220.890 171.575 C 222.744 171.036,225.653 169.898,225.958 169.592 C 226.026 169.524,226.332 169.329,226.638 169.159 C 228.445 168.155,227.986 168.464,231.397 165.958 C 232.824 164.909,234.326 163.664,234.734 163.192 C 235.142 162.719,236.208 161.547,237.102 160.585 C 237.997 159.624,238.993 158.449,239.316 157.973 C 239.638 157.497,239.968 157.052,240.048 156.984 C 240.320 156.754,242.525 153.496,243.029 152.579 C 243.305 152.078,243.909 151.001,244.374 150.185 C 245.250 148.645,246.149 146.852,246.792 145.365 C 246.997 144.889,247.458 143.852,247.815 143.060 C 248.839 140.790,250.802 134.783,251.424 132.015 C 251.592 131.267,251.819 130.433,251.929 130.161 C 252.039 129.889,252.193 129.305,252.270 128.863 C 252.347 128.421,252.474 127.698,252.551 127.256 C 252.628 126.814,252.787 126.230,252.905 125.958 C 253.022 125.686,253.186 124.852,253.269 124.104 C 253.352 123.356,253.527 121.799,253.656 120.643 C 254.675 111.574,254.678 103.341,253.666 94.314 C 253.544 93.226,253.363 91.582,253.264 90.661 C 253.165 89.739,252.988 88.926,252.870 88.854 C 252.753 88.782,252.658 88.346,252.658 87.886 C 252.658 87.426,252.546 86.981,252.410 86.897 C 252.274 86.813,252.163 86.360,252.163 85.891 C 252.163 85.421,252.064 84.843,251.942 84.607 C 251.821 84.371,251.586 83.566,251.420 82.818 C 250.851 80.250,248.905 74.132,248.068 72.277 C 247.708 71.480,247.189 70.328,246.915 69.716 C 243.251 61.547,237.328 53.242,232.809 49.938 C 232.158 49.462,230.879 48.489,229.966 47.776 C 229.053 47.063,228.215 46.479,228.104 46.479 C 227.992 46.478,227.436 46.168,226.868 45.790 C 225.261 44.721,222.671 43.672,219.506 42.809 C 217.346 42.220,212.274 41.946,209.518 42.269 M235.097 73.357 C 235.257 74.549,235.590 76.248,235.837 77.132 C 236.423 79.235,237.473 85.013,237.836 88.133 C 237.994 89.493,238.221 90.884,238.340 91.224 C 238.459 91.564,238.663 92.843,238.794 94.067 C 238.924 95.290,239.167 97.569,239.333 99.131 C 239.799 103.523,239.071 121.388,238.382 122.460 C 238.079 122.931,237.585 124.445,237.581 124.914 C 237.576 125.525,236.153 129.787,235.747 130.406 C 235.565 130.685,235.355 131.355,235.282 131.896 C 234.739 135.905,234.240 137.012,233.264 136.372 C 232.657 135.975,232.417 135.476,232.832 135.476 C 233.194 135.476,233.644 109.703,233.621 90.292 C 233.609 79.786,233.666 71.080,233.749 70.947 C 234.218 70.186,234.813 71.250,235.097 73.357 " stroke="none" fill="#be5cf7" fill-rule="evenodd"></path><path id="path1" d="M0.000 123.609 L 0.000 247.219 200.000 247.219 L 400.000 247.219 400.000 123.609 L 400.000 0.000 200.000 0.000 L 0.000 0.000 0.000 123.609 M217.676 41.780 C 217.760 41.916,218.151 42.027,218.544 42.027 C 218.938 42.027,219.515 42.124,219.828 42.243 C 220.140 42.362,221.007 42.657,221.755 42.899 C 223.125 43.342,224.944 44.080,225.806 44.543 C 228.143 45.796,229.539 46.726,232.015 48.677 C 234.164 50.371,239.555 55.797,239.555 56.266 C 239.555 56.457,239.642 56.613,239.749 56.613 C 239.856 56.613,240.138 56.943,240.376 57.346 C 240.614 57.749,240.963 58.233,241.152 58.422 C 242.532 59.802,246.137 66.408,248.327 71.570 C 248.558 72.114,248.890 72.837,249.065 73.177 C 249.240 73.517,249.630 74.629,249.933 75.649 C 250.235 76.669,250.573 77.726,250.684 77.998 C 250.795 78.269,250.958 78.770,251.047 79.110 C 251.135 79.450,251.319 80.117,251.455 80.593 C 251.925 82.242,252.553 84.934,252.809 86.403 C 252.880 86.811,253.035 87.367,253.154 87.639 C 253.376 88.151,253.493 88.818,253.911 91.965 C 255.161 101.377,255.328 110.898,254.386 118.912 C 253.704 124.710,253.429 126.561,253.154 127.194 C 253.035 127.466,252.880 128.022,252.809 128.430 C 252.553 129.899,251.925 132.591,251.455 134.240 C 251.319 134.716,251.135 135.383,251.047 135.723 C 250.958 136.063,250.795 136.564,250.684 136.836 C 250.573 137.108,250.236 138.154,249.934 139.160 C 249.632 140.167,249.120 141.518,248.796 142.163 C 248.473 142.808,248.208 143.409,248.208 143.500 C 248.208 143.841,246.357 147.690,244.994 150.185 C 244.622 150.865,243.999 152.006,243.609 152.719 C 243.219 153.433,242.307 154.824,241.582 155.810 C 240.857 156.795,240.077 157.876,239.848 158.210 C 238.642 159.973,233.771 164.829,231.366 166.667 C 229.444 168.136,225.589 170.581,225.195 170.581 C 225.067 170.581,224.769 170.679,224.533 170.799 C 223.318 171.417,221.488 172.052,218.919 172.745 C 216.393 173.427,210.185 173.451,207.764 172.788 C 206.689 172.494,205.476 172.167,205.068 172.061 C 204.034 171.794,201.880 170.982,201.731 170.804 C 201.663 170.723,201.309 170.584,200.944 170.495 C 200.580 170.406,200.131 170.194,199.946 170.024 C 199.611 169.716,199.243 169.490,197.556 168.557 C 197.064 168.285,196.162 167.653,195.550 167.151 C 194.938 166.650,194.124 166.041,193.740 165.797 C 192.412 164.955,187.405 159.570,185.660 157.108 C 184.697 155.748,183.774 154.462,183.611 154.251 C 183.447 154.040,183.133 153.539,182.912 153.139 C 182.692 152.738,182.176 151.799,181.766 151.051 C 180.752 149.203,179.422 146.538,178.619 144.747 C 178.254 143.931,177.853 143.070,177.729 142.834 C 177.605 142.598,177.503 142.246,177.503 142.051 C 177.503 141.857,177.419 141.660,177.317 141.615 C 177.137 141.535,176.423 139.493,175.776 137.206 C 175.603 136.595,175.310 135.649,175.124 135.105 C 174.716 133.907,174.066 131.510,173.782 130.161 C 173.668 129.617,173.468 128.727,173.338 128.183 C 172.649 125.302,172.509 124.558,172.310 122.744 C 172.190 121.656,171.954 119.654,171.785 118.294 C 171.593 116.759,171.477 112.638,171.477 107.417 C 171.477 102.195,171.593 98.075,171.785 96.539 C 171.954 95.179,172.191 93.177,172.310 92.089 C 172.430 91.001,172.652 89.611,172.804 88.999 C 173.074 87.913,173.313 86.865,173.776 84.734 C 174.208 82.751,174.556 81.455,175.253 79.234 C 175.637 78.010,176.216 76.147,176.541 75.094 C 176.866 74.041,177.216 73.179,177.318 73.178 C 177.420 73.177,177.503 73.008,177.503 72.803 C 177.503 72.597,177.602 72.235,177.723 71.999 C 177.844 71.763,178.166 71.069,178.438 70.457 C 179.461 68.153,180.478 66.079,181.346 64.524 C 181.840 63.640,182.579 62.305,182.989 61.557 C 183.398 60.810,183.811 60.142,183.906 60.074 C 184.001 60.006,184.343 59.561,184.666 59.085 C 187.808 54.456,191.716 50.411,195.891 47.467 C 196.179 47.263,196.631 46.902,196.895 46.663 C 197.158 46.425,197.510 46.230,197.677 46.230 C 197.844 46.230,198.018 46.146,198.063 46.044 C 198.384 45.323,203.966 42.880,206.675 42.274 C 207.423 42.107,208.257 41.880,208.529 41.768 C 209.257 41.471,217.492 41.481,217.676 41.780 M234.027 72.962 C 234.412 75.366,233.921 131.677,233.488 134.796 C 233.356 135.748,233.395 135.970,233.696 135.970 C 233.947 135.970,234.108 135.632,234.195 134.920 C 234.380 133.410,235.052 130.376,235.317 129.859 C 235.440 129.617,235.652 129.141,235.787 128.801 C 235.922 128.461,236.157 127.872,236.310 127.491 C 236.463 127.111,236.588 126.534,236.588 126.208 C 236.588 125.883,236.700 125.548,236.836 125.464 C 236.972 125.380,237.083 125.041,237.083 124.712 C 237.083 124.173,237.499 122.848,238.088 121.508 C 238.208 121.236,238.367 119.289,238.441 117.182 C 238.737 108.855,238.850 107.046,239.074 107.046 C 239.377 107.046,239.383 101.289,239.081 100.977 C 238.956 100.847,238.792 100.019,238.716 99.135 C 238.304 94.316,238.093 92.486,237.845 91.595 C 237.693 91.051,237.392 89.326,237.174 87.763 C 236.484 82.798,236.000 79.973,235.587 78.492 C 235.176 77.018,234.845 75.224,234.656 73.443 C 234.550 72.446,234.362 71.815,234.151 71.745 C 233.878 71.655,233.855 71.885,234.027 72.962 " stroke="none" fill="#ffffff" fill-rule="evenodd"></path><path id="path2" d="M209.394 42.000 C 208.918 42.085,210.587 42.157,213.103 42.159 C 215.689 42.161,217.247 42.086,216.687 41.986 C 215.500 41.773,210.609 41.782,209.394 42.000 M206.922 42.522 C 206.431 42.839,207.048 42.839,207.787 42.522 L 208.282 42.309 207.787 42.296 C 207.515 42.288,207.126 42.390,206.922 42.522 M219.159 42.678 C 222.486 43.626,225.358 44.785,226.868 45.790 C 227.436 46.168,227.992 46.478,228.104 46.479 C 228.215 46.479,229.053 47.063,229.966 47.776 C 230.879 48.489,232.158 49.462,232.809 49.937 C 233.460 50.413,234.299 51.120,234.672 51.509 C 235.046 51.897,235.352 52.112,235.352 51.985 C 235.352 51.170,225.587 44.252,224.436 44.252 C 224.231 44.252,223.989 44.178,223.899 44.088 C 223.516 43.706,218.873 42.244,218.220 42.300 C 218.057 42.314,218.480 42.484,219.159 42.678 M203.214 43.715 C 199.998 44.993,197.171 46.694,193.820 49.369 C 192.500 50.422,192.230 50.664,192.372 50.672 C 192.460 50.676,193.295 50.092,194.227 49.373 C 198.405 46.149,200.755 44.810,204.574 43.476 C 205.661 43.097,206.329 42.785,206.057 42.784 C 205.785 42.783,204.506 43.202,203.214 43.715 M189.585 53.337 C 188.841 54.119,187.905 55.204,187.504 55.748 C 187.104 56.292,186.719 56.792,186.649 56.860 C 185.977 57.509,183.191 61.788,181.885 64.176 C 179.998 67.628,178.090 71.693,178.358 71.693 C 178.466 71.693,178.765 71.085,180.241 67.862 C 180.674 66.916,182.223 64.031,183.425 61.930 C 184.532 59.996,187.608 55.866,189.580 53.667 C 191.470 51.561,191.473 51.354,189.585 53.337 M236.460 53.399 C 236.988 54.011,237.491 54.567,237.578 54.635 C 237.948 54.925,240.329 58.152,241.798 60.356 C 244.071 63.767,244.109 63.814,243.233 62.176 C 242.798 61.360,241.870 59.913,241.171 58.962 C 240.473 58.010,239.498 56.675,239.005 55.995 C 238.511 55.315,237.521 54.203,236.804 53.523 L 235.501 52.287 236.460 53.399 M244.005 63.899 C 244.005 64.097,245.027 65.870,245.291 66.131 C 245.429 66.267,245.249 65.794,244.893 65.080 C 244.324 63.943,244.005 63.518,244.005 63.899 M245.488 66.587 C 245.488 66.851,246.300 68.244,246.398 68.147 C 246.525 68.020,245.794 66.502,245.606 66.502 C 245.541 66.502,245.488 66.540,245.488 66.587 M246.477 68.648 C 246.477 68.955,247.213 70.457,247.364 70.457 C 247.480 70.457,246.786 68.706,246.593 68.513 C 246.529 68.449,246.477 68.510,246.477 68.648 M233.616 71.210 C 233.466 71.491,233.397 71.854,233.463 72.016 C 233.530 72.182,233.591 72.128,233.602 71.893 C 233.631 71.279,234.021 71.140,234.467 71.585 C 234.814 71.932,234.858 71.933,234.858 71.596 C 234.858 70.910,233.931 70.621,233.616 71.210 M247.482 70.846 C 247.473 70.992,247.778 71.771,248.159 72.577 C 248.541 73.383,249.116 74.903,249.438 75.956 C 249.761 77.009,250.077 77.818,250.141 77.754 C 250.328 77.567,249.224 74.286,248.324 72.354 C 247.870 71.379,247.491 70.700,247.482 70.846 M234.904 73.300 C 234.898 73.844,234.988 74.512,235.105 74.784 L 235.318 75.278 235.321 74.784 C 235.322 74.512,235.232 73.844,235.119 73.300 L 234.915 72.311 234.904 73.300 M233.698 90.606 L 233.707 108.653 233.880 92.336 C 233.975 83.362,233.971 75.241,233.871 74.289 C 233.771 73.337,233.693 80.680,233.698 90.606 M177.033 74.529 C 176.748 75.291,176.514 75.995,176.514 76.094 C 176.514 76.192,176.232 77.162,175.887 78.248 C 174.934 81.247,174.012 84.831,174.115 85.138 C 174.165 85.289,174.407 84.578,174.652 83.559 C 174.897 82.540,175.238 81.261,175.411 80.717 C 175.583 80.173,175.969 78.894,176.269 77.874 C 176.966 75.498,177.243 74.668,177.570 73.981 C 177.715 73.675,177.770 73.361,177.692 73.284 C 177.615 73.206,177.318 73.766,177.033 74.529 M235.359 76.452 C 235.370 76.920,236.304 79.531,236.324 79.148 C 236.346 78.728,235.601 76.143,235.458 76.143 C 235.400 76.143,235.355 76.282,235.359 76.452 M250.185 78.269 C 250.185 78.672,250.988 81.109,251.088 81.009 C 251.218 80.879,250.457 78.121,250.291 78.121 C 250.233 78.121,250.185 78.187,250.185 78.269 M236.341 80.372 C 236.341 80.522,236.554 81.774,236.813 83.153 C 237.073 84.533,237.416 86.829,237.576 88.257 C 237.736 89.685,237.972 91.116,238.100 91.438 C 238.728 93.006,239.343 101.718,239.228 107.417 L 239.113 113.103 239.369 107.664 C 239.562 103.566,239.550 101.463,239.322 99.135 C 238.793 93.732,238.560 91.858,238.339 91.224 C 238.221 90.884,237.993 89.493,237.833 88.133 C 237.369 84.196,236.341 78.846,236.341 80.372 M251.307 81.953 C 251.375 82.361,251.500 83.115,251.583 83.628 C 251.667 84.141,251.844 84.628,251.976 84.709 C 252.247 84.877,252.045 83.773,251.517 82.206 C 251.276 81.489,251.217 81.418,251.307 81.953 M252.188 85.956 C 252.174 86.390,252.274 86.813,252.410 86.897 C 252.695 87.073,252.695 86.673,252.410 85.785 C 252.221 85.195,252.211 85.202,252.188 85.956 M173.671 86.527 C 173.577 86.954,173.556 87.359,173.624 87.427 C 173.692 87.495,173.825 87.201,173.918 86.774 C 174.012 86.346,174.033 85.941,173.965 85.873 C 173.897 85.805,173.765 86.099,173.671 86.527 M252.658 87.954 C 252.658 88.377,252.767 88.790,252.901 88.873 C 253.053 88.967,253.086 88.717,252.989 88.208 C 252.781 87.115,252.658 87.020,252.658 87.954 M173.215 88.348 C 173.113 88.738,173.088 89.116,173.159 89.187 C 173.358 89.386,173.601 88.590,173.495 88.086 C 173.426 87.757,173.352 87.825,173.215 88.348 M253.208 90.235 C 253.204 90.847,253.290 91.625,253.399 91.965 L 253.597 92.583 253.604 91.965 C 253.607 91.625,253.521 90.847,253.412 90.235 L 253.214 89.122 253.208 90.235 M172.709 91.306 C 172.604 92.100,172.574 92.805,172.643 92.874 C 172.819 93.050,173.122 90.887,173.000 90.326 C 172.945 90.072,172.814 90.513,172.709 91.306 M253.664 94.335 C 253.673 95.139,253.782 96.020,253.905 96.292 C 254.048 96.608,254.074 96.117,253.979 94.932 C 253.796 92.659,253.640 92.365,253.664 94.335 M172.226 95.391 C 172.120 96.255,172.088 97.016,172.154 97.082 C 172.331 97.259,172.619 95.108,172.511 94.414 C 172.460 94.087,172.332 94.527,172.226 95.391 M254.329 100.865 C 254.541 106.077,254.538 108.905,254.316 113.968 C 254.217 116.211,254.183 117.936,254.239 117.800 C 254.698 116.693,254.896 106.279,254.545 101.731 L 254.163 96.786 254.329 100.865 M171.731 101.562 C 171.616 103.509,171.579 105.159,171.648 105.228 C 171.870 105.451,172.100 102.291,172.019 100.124 C 171.946 98.155,171.927 98.247,171.731 101.562 M171.624 110.878 C 171.623 111.693,171.704 113.362,171.804 114.586 L 171.986 116.811 172.011 114.091 C 172.025 112.596,171.944 110.927,171.831 110.383 C 171.636 109.439,171.627 109.461,171.624 110.878 M238.793 116.934 C 238.673 120.131,238.542 121.094,238.006 122.744 C 237.652 123.832,237.231 125.222,237.071 125.834 C 236.910 126.446,236.665 127.256,236.526 127.635 C 236.388 128.013,236.337 128.385,236.414 128.462 C 236.569 128.616,237.575 125.527,237.581 124.881 C 237.585 124.436,238.089 122.916,238.385 122.454 C 238.748 121.889,239.085 118.258,239.011 115.698 C 238.939 113.181,238.933 113.219,238.793 116.934 M233.433 118.563 C 233.159 131.406,233.150 134.057,233.382 133.155 C 233.529 132.581,233.601 128.889,233.560 124.008 C 233.522 119.506,233.465 117.056,233.433 118.563 M172.107 118.171 C 172.104 118.511,172.190 119.289,172.299 119.901 L 172.497 121.014 172.503 119.901 C 172.507 119.289,172.420 118.511,172.311 118.171 L 172.114 117.553 172.107 118.171 M253.817 118.671 C 253.727 119.008,253.666 119.895,253.681 120.643 L 253.709 122.002 253.929 120.285 C 254.159 118.492,254.098 117.619,253.817 118.671 M172.590 122.373 C 172.589 122.713,172.679 123.436,172.792 123.980 L 172.996 124.969 173.007 123.857 C 173.013 123.245,172.923 122.522,172.806 122.250 C 172.612 121.798,172.593 121.809,172.590 122.373 M253.327 123.084 C 253.231 123.543,253.165 124.322,253.181 124.815 C 253.205 125.571,253.245 125.498,253.435 124.353 C 253.687 122.831,253.598 121.787,253.327 123.084 M173.088 125.711 C 173.088 125.983,173.184 126.428,173.300 126.700 L 173.513 127.194 173.513 126.700 C 173.513 126.428,173.417 125.983,173.300 125.711 L 173.088 125.216 173.088 125.711 M252.822 125.999 C 252.732 126.090,252.669 126.507,252.683 126.926 L 252.708 127.689 252.911 126.825 C 253.123 125.925,253.101 125.721,252.822 125.999 M173.582 127.689 C 173.582 127.960,173.678 128.405,173.795 128.677 L 174.007 129.172 174.007 128.677 C 174.007 128.405,173.912 127.960,173.795 127.689 L 173.582 127.194 173.582 127.689 M252.317 128.192 C 252.233 128.413,252.173 128.835,252.185 129.130 C 252.201 129.510,252.277 129.424,252.447 128.836 C 252.693 127.980,252.592 127.477,252.317 128.192 M235.788 129.702 C 235.557 130.212,235.412 130.674,235.466 130.727 C 235.617 130.878,236.382 129.293,236.290 129.018 C 236.245 128.884,236.020 129.192,235.788 129.702 M174.042 129.753 C 174.042 130.580,176.534 138.999,176.723 138.810 C 176.841 138.692,176.598 137.796,175.753 135.229 C 175.507 134.481,175.067 132.923,174.776 131.768 C 174.268 129.749,174.042 129.128,174.042 129.753 M251.829 130.311 C 251.472 131.562,251.140 133.299,251.239 133.398 C 251.304 133.463,251.543 132.775,251.771 131.869 C 252.110 130.519,252.162 129.147,251.829 130.311 M235.141 131.520 C 235.118 131.860,235.037 132.417,234.961 132.756 C 234.843 133.289,234.862 133.314,235.103 132.937 C 235.257 132.696,235.338 132.139,235.284 131.700 C 235.206 131.080,235.175 131.040,235.141 131.520 M234.475 134.650 C 234.219 136.421,234.046 136.641,233.408 136.004 C 232.827 135.423,232.633 135.351,232.633 135.717 C 232.633 136.313,233.908 136.836,234.243 136.378 C 234.577 135.922,234.980 133.785,234.771 133.576 C 234.703 133.508,234.570 133.991,234.475 134.650 M250.564 135.113 C 250.340 135.886,250.208 136.570,250.272 136.633 C 250.335 136.697,250.571 136.117,250.795 135.344 C 251.020 134.572,251.152 133.888,251.088 133.824 C 251.025 133.761,250.789 134.341,250.564 135.113 M249.268 139.286 C 248.567 141.335,248.051 142.589,246.789 145.312 C 246.582 145.758,246.463 146.174,246.524 146.235 C 246.691 146.403,249.328 140.262,249.802 138.601 C 250.443 136.351,250.138 136.743,249.268 139.286 M176.926 139.802 C 177.100 140.655,177.726 141.935,177.740 141.468 C 177.746 141.296,177.651 140.962,177.529 140.726 C 177.407 140.490,177.187 140.019,177.041 139.679 C 176.787 139.088,176.781 139.094,176.926 139.802 M177.750 142.005 C 177.750 142.192,180.192 147.519,180.664 148.363 C 180.921 148.821,181.670 150.198,182.329 151.422 C 183.425 153.456,184.596 155.214,186.860 158.220 C 190.071 162.485,199.506 170.613,199.506 169.113 C 199.506 168.969,199.388 168.850,199.245 168.850 C 198.916 168.850,196.480 167.208,194.067 165.358 C 191.920 163.713,188.556 160.147,186.631 157.478 C 185.896 156.459,185.232 155.569,185.157 155.501 C 184.841 155.217,183.877 153.721,183.218 152.492 C 182.829 151.767,181.996 150.255,181.367 149.131 C 180.737 148.008,180.222 147.039,180.222 146.979 C 180.222 146.919,179.901 146.170,179.509 145.314 C 179.116 144.458,178.610 143.341,178.385 142.831 C 178.030 142.029,177.750 141.665,177.750 142.005 M245.884 147.367 C 245.665 147.806,245.534 148.212,245.593 148.271 C 245.651 148.329,245.882 148.023,246.106 147.590 C 246.330 147.156,246.461 146.750,246.398 146.686 C 246.334 146.622,246.103 146.929,245.884 147.367 M245.159 148.764 C 244.453 149.942,244.003 150.884,244.100 150.981 C 244.165 151.046,244.506 150.533,244.858 149.839 C 245.376 148.816,245.595 148.037,245.159 148.764 M243.314 152.070 C 242.809 152.995,240.278 156.809,240.052 156.984 C 239.965 157.052,239.549 157.608,239.128 158.220 C 238.708 158.832,237.844 159.833,237.209 160.445 C 236.573 161.057,235.831 161.891,235.558 162.299 C 234.366 164.084,238.874 159.046,240.558 156.710 C 242.456 154.079,244.167 151.298,243.888 151.298 C 243.804 151.298,243.545 151.645,243.314 152.070 M234.075 163.849 C 233.952 164.133,228.916 167.862,228.656 167.862 C 228.532 167.862,228.430 167.978,228.430 168.121 C 228.430 168.523,234.120 164.430,234.322 163.882 C 234.422 163.611,234.191 163.580,234.075 163.849 M227.194 168.850 C 226.854 169.116,226.437 169.336,226.267 169.339 C 226.097 169.342,225.958 169.465,225.958 169.612 C 225.958 169.849,227.427 169.111,228.047 168.564 C 228.536 168.131,227.795 168.380,227.194 168.850 M199.862 169.569 C 200.055 169.882,203.726 171.387,203.891 171.222 C 203.966 171.148,203.816 171.019,203.558 170.935 C 202.709 170.660,202.115 170.410,201.027 169.874 C 199.835 169.287,199.659 169.241,199.862 169.569 M223.733 170.561 C 223.408 170.748,221.593 171.350,219.117 172.094 C 216.133 172.990,210.463 172.914,206.738 171.928 C 204.293 171.281,203.862 171.210,204.452 171.556 C 206.939 173.014,215.137 173.401,219.407 172.263 C 221.868 171.606,225.181 170.357,224.475 170.352 C 224.271 170.350,223.937 170.444,223.733 170.561 " stroke="none" fill="#be5cf7" fill-rule="evenodd"></path><path id="path3" d="M212.670 41.703 C 212.908 41.765,213.297 41.765,213.535 41.703 C 213.773 41.641,213.578 41.590,213.103 41.590 C 212.627 41.590,212.432 41.641,212.670 41.703 M190.722 51.978 L 189.246 53.523 190.791 52.047 C 191.641 51.236,192.336 50.540,192.336 50.502 C 192.336 50.320,192.092 50.542,190.722 51.978 M236.712 53.399 C 237.519 54.215,238.235 54.883,238.303 54.883 C 238.371 54.883,237.767 54.215,236.959 53.399 C 236.152 52.583,235.436 51.916,235.368 51.916 C 235.300 51.916,235.905 52.583,236.712 53.399 M239.802 57.108 C 240.093 57.515,240.386 57.849,240.454 57.849 C 240.522 57.849,240.340 57.515,240.049 57.108 C 239.759 56.700,239.466 56.366,239.398 56.366 C 239.330 56.366,239.512 56.700,239.802 57.108 M242.892 61.557 C 243.103 61.965,243.332 62.299,243.400 62.299 C 243.468 62.299,243.351 61.965,243.140 61.557 C 242.929 61.150,242.701 60.816,242.633 60.816 C 242.565 60.816,242.682 61.150,242.892 61.557 M233.717 71.555 C 233.641 71.751,233.624 72.113,233.677 72.359 C 233.737 72.638,233.822 72.504,233.902 72.002 C 234.037 71.161,233.949 70.950,233.717 71.555 M233.973 88.010 C 233.973 90.797,234.009 91.938,234.053 90.544 C 234.097 89.150,234.097 86.870,234.053 85.476 C 234.009 84.082,233.973 85.222,233.973 88.010 M253.704 92.213 C 253.704 92.689,253.755 92.883,253.817 92.645 C 253.879 92.407,253.879 92.018,253.817 91.780 C 253.755 91.542,253.704 91.737,253.704 92.213 M172.374 93.078 C 172.377 93.622,172.427 93.815,172.486 93.508 C 172.545 93.200,172.543 92.755,172.481 92.519 C 172.419 92.282,172.371 92.534,172.374 93.078 M238.390 94.067 C 238.391 94.747,238.439 94.995,238.496 94.620 C 238.553 94.244,238.552 93.688,238.493 93.383 C 238.434 93.079,238.388 93.387,238.390 94.067 M238.628 96.292 C 238.631 96.836,238.682 97.029,238.741 96.721 C 238.800 96.414,238.798 95.969,238.736 95.733 C 238.674 95.496,238.626 95.748,238.628 96.292 M171.874 97.404 C 171.874 97.880,171.925 98.075,171.987 97.837 C 172.050 97.599,172.050 97.210,171.987 96.972 C 171.925 96.734,171.874 96.928,171.874 97.404 M238.881 99.135 C 238.881 99.747,238.929 99.997,238.988 99.691 C 239.047 99.385,239.047 98.884,238.988 98.578 C 238.929 98.273,238.881 98.523,238.881 99.135 M254.459 99.753 C 254.461 100.433,254.509 100.681,254.566 100.306 C 254.622 99.930,254.621 99.374,254.562 99.070 C 254.503 98.765,254.457 99.073,254.459 99.753 M171.641 100.742 C 171.642 101.422,171.690 101.670,171.747 101.294 C 171.804 100.919,171.803 100.362,171.744 100.058 C 171.685 99.754,171.639 100.062,171.641 100.742 M254.716 102.967 C 254.718 103.918,254.762 104.277,254.816 103.765 C 254.869 103.252,254.868 102.473,254.814 102.034 C 254.759 101.595,254.715 102.015,254.716 102.967 M171.423 107.417 C 171.423 109.592,171.461 110.449,171.507 109.321 C 171.553 108.193,171.552 106.413,171.506 105.365 C 171.460 104.318,171.422 105.241,171.423 107.417 M238.908 110.383 C 238.908 112.015,238.948 112.650,238.997 111.795 C 239.045 110.940,239.045 109.605,238.996 108.828 C 238.947 108.052,238.907 108.752,238.908 110.383 M233.734 117.553 C 233.734 122.583,233.767 124.606,233.807 122.048 C 233.847 119.490,233.847 115.374,233.807 112.901 C 233.766 110.428,233.734 112.522,233.734 117.553 M254.716 111.867 C 254.718 112.818,254.762 113.177,254.816 112.664 C 254.869 112.152,254.868 111.373,254.814 110.934 C 254.759 110.495,254.715 110.915,254.716 111.867 M171.641 114.091 C 171.642 114.771,171.690 115.020,171.747 114.644 C 171.804 114.269,171.803 113.712,171.744 113.408 C 171.685 113.104,171.639 113.412,171.641 114.091 M254.462 114.957 C 254.462 115.705,254.509 116.011,254.565 115.637 C 254.622 115.263,254.622 114.651,254.565 114.277 C 254.509 113.903,254.462 114.209,254.462 114.957 M238.618 116.095 C 238.589 117.333,238.515 119.057,238.452 119.927 L 238.338 121.508 238.579 120.025 C 238.712 119.209,238.787 117.485,238.745 116.193 L 238.670 113.844 238.618 116.095 M171.874 117.429 C 171.874 117.905,171.925 118.100,171.987 117.862 C 172.050 117.624,172.050 117.234,171.987 116.996 C 171.925 116.758,171.874 116.953,171.874 117.429 M172.374 121.755 C 172.377 122.299,172.427 122.493,172.486 122.185 C 172.545 121.877,172.543 121.432,172.481 121.196 C 172.419 120.960,172.371 121.211,172.374 121.755 M253.704 122.621 C 253.704 123.096,253.755 123.291,253.817 123.053 C 253.879 122.815,253.879 122.426,253.817 122.188 C 253.755 121.950,253.704 122.145,253.704 122.621 M233.185 134.734 C 233.185 135.210,233.236 135.405,233.298 135.167 C 233.360 134.929,233.360 134.540,233.298 134.302 C 233.236 134.064,233.185 134.258,233.185 134.734 M234.212 134.593 C 234.138 134.787,234.119 135.204,234.169 135.520 C 234.237 135.942,234.294 135.849,234.386 135.167 C 234.516 134.207,234.447 133.981,234.212 134.593 M188.370 160.260 C 188.977 160.905,189.505 161.434,189.545 161.434 C 189.730 161.434,189.534 161.212,188.443 160.187 L 187.268 159.085 188.370 160.260 M235.217 162.979 L 234.240 164.030 235.290 163.052 C 236.268 162.144,236.455 161.928,236.268 161.928 C 236.227 161.928,235.755 162.401,235.217 162.979 M190.853 162.995 C 190.853 163.037,191.214 163.399,191.656 163.798 L 192.460 164.524 191.734 163.721 C 191.057 162.972,190.853 162.804,190.853 162.995 M209.335 172.981 C 209.643 173.040,210.088 173.038,210.324 172.976 C 210.561 172.914,210.309 172.866,209.765 172.868 C 209.221 172.871,209.028 172.922,209.335 172.981 M216.131 172.976 C 216.369 173.039,216.758 173.039,216.996 172.976 C 217.234 172.914,217.040 172.863,216.564 172.863 C 216.088 172.863,215.893 172.914,216.131 172.976 " stroke="none" fill="#e5bcfc" fill-rule="evenodd"></path><path id="path4" d="M208.720 41.733 C 208.553 41.840,209.164 41.887,210.079 41.840 C 212.464 41.715,212.762 41.594,210.754 41.565 C 209.802 41.552,208.887 41.627,208.720 41.733 M214.091 41.671 C 214.964 41.863,217.755 41.908,217.645 41.729 C 217.578 41.621,216.668 41.546,215.622 41.561 C 214.576 41.577,213.888 41.627,214.091 41.671 M218.315 42.115 C 218.371 42.164,218.807 42.275,219.283 42.362 C 219.892 42.474,220.038 42.449,219.778 42.278 C 219.442 42.058,218.070 41.906,218.315 42.115 M205.686 42.522 C 205.177 42.685,205.155 42.723,205.562 42.740 C 205.834 42.752,206.224 42.653,206.428 42.522 C 206.861 42.242,206.560 42.242,205.686 42.522 M200.185 44.641 C 199.261 45.142,199.317 45.351,200.247 44.870 C 200.655 44.659,200.989 44.434,200.989 44.369 C 200.989 44.210,200.962 44.219,200.185 44.641 M226.947 45.358 C 226.947 45.423,227.308 45.652,227.750 45.868 L 228.554 46.260 227.936 45.756 C 227.341 45.271,226.947 45.112,226.947 45.358 M230.037 47.335 C 230.445 47.693,231.112 48.212,231.520 48.488 L 232.262 48.990 231.520 48.339 C 231.112 47.981,230.445 47.462,230.037 47.186 L 229.295 46.683 230.037 47.335 M195.357 47.899 C 194.765 48.477,194.755 48.505,195.291 48.088 C 196.346 47.266,196.396 47.219,196.221 47.219 C 196.128 47.219,195.739 47.525,195.357 47.899 M193.449 49.342 L 192.707 49.979 193.511 49.447 C 193.952 49.155,194.314 48.868,194.314 48.809 C 194.314 48.624,194.209 48.688,193.449 49.342 M187.989 54.697 C 186.853 55.938,184.526 59.085,184.745 59.085 C 184.804 59.085,185.441 58.279,186.162 57.293 C 186.882 56.307,187.809 55.139,188.222 54.697 C 188.635 54.255,188.917 53.894,188.849 53.894 C 188.781 53.894,188.394 54.255,187.989 54.697 M238.328 54.802 C 238.340 55.082,239.552 56.542,239.554 56.278 C 239.554 56.162,239.277 55.736,238.937 55.332 C 238.597 54.928,238.323 54.689,238.328 54.802 M241.673 59.456 C 242.522 60.569,242.687 60.570,241.968 59.459 C 241.660 58.985,241.320 58.596,241.211 58.594 C 241.102 58.592,241.310 58.980,241.673 59.456 M183.479 60.593 C 183.021 61.325,183.224 61.380,183.757 60.668 C 184.001 60.341,184.111 60.074,184.002 60.074 C 183.892 60.074,183.657 60.307,183.479 60.593 M182.571 62.299 C 182.360 62.707,182.243 63.041,182.311 63.041 C 182.379 63.041,182.607 62.707,182.818 62.299 C 183.029 61.891,183.146 61.557,183.078 61.557 C 183.010 61.557,182.782 61.891,182.571 62.299 M243.634 62.546 C 243.845 62.954,244.073 63.288,244.141 63.288 C 244.209 63.288,244.092 62.954,243.881 62.546 C 243.670 62.138,243.442 61.805,243.374 61.805 C 243.306 61.805,243.423 62.138,243.634 62.546 M245.109 65.204 C 245.325 65.646,245.554 66.007,245.618 66.007 C 245.864 66.007,245.706 65.614,245.221 65.019 L 244.717 64.400 245.109 65.204 M179.963 67.020 C 179.679 67.577,179.489 68.075,179.541 68.127 C 179.592 68.179,179.877 67.723,180.173 67.114 C 180.846 65.728,180.664 65.646,179.963 67.020 M233.982 88.058 C 233.976 97.347,234.036 101.396,234.136 98.517 C 234.357 92.159,234.376 75.011,234.164 73.843 C 234.070 73.325,233.988 79.722,233.982 88.058 M234.614 73.815 C 234.616 74.348,234.716 74.938,234.835 75.126 C 234.968 75.335,235.001 74.999,234.922 74.261 C 234.760 72.755,234.609 72.537,234.614 73.815 M249.131 73.921 C 249.346 74.466,249.566 74.868,249.620 74.813 C 249.739 74.694,249.025 72.930,248.858 72.930 C 248.794 72.930,248.917 73.376,249.131 73.921 M235.109 76.658 C 235.111 76.987,235.222 77.423,235.356 77.627 C 235.527 77.888,235.552 77.741,235.440 77.132 C 235.244 76.066,235.104 75.865,235.109 76.658 M250.089 76.761 C 250.292 77.670,250.434 77.868,250.429 77.235 C 250.427 76.975,250.312 76.595,250.174 76.391 C 249.991 76.120,249.968 76.220,250.089 76.761 M250.450 78.045 C 250.506 78.686,250.892 79.231,250.910 78.692 C 250.919 78.394,250.816 78.082,250.680 77.998 C 250.544 77.913,250.440 77.935,250.450 78.045 M235.642 78.492 C 235.638 78.764,235.730 79.209,235.847 79.481 C 236.117 80.111,236.117 79.461,235.847 78.616 C 235.688 78.119,235.647 78.094,235.642 78.492 M251.078 79.975 C 251.281 80.884,251.423 81.082,251.418 80.449 C 251.416 80.189,251.301 79.808,251.163 79.604 C 250.980 79.334,250.957 79.434,251.078 79.975 M236.151 81.088 C 236.151 81.564,236.202 81.758,236.264 81.520 C 236.327 81.282,236.327 80.893,236.264 80.655 C 236.202 80.417,236.151 80.612,236.151 81.088 M251.572 81.706 C 251.776 82.615,251.917 82.812,251.912 82.180 C 251.910 81.919,251.795 81.539,251.657 81.335 C 251.474 81.064,251.451 81.164,251.572 81.706 M236.613 83.828 C 236.627 84.292,236.730 84.951,236.844 85.290 C 236.977 85.689,237.000 85.427,236.909 84.549 C 236.748 82.993,236.576 82.575,236.613 83.828 M252.067 83.684 C 252.270 84.593,252.412 84.790,252.407 84.157 C 252.405 83.897,252.290 83.517,252.152 83.313 C 251.969 83.042,251.946 83.142,252.067 83.684 M173.949 83.693 C 173.864 83.914,173.806 84.336,173.820 84.631 C 173.836 84.970,173.920 84.849,174.048 84.303 C 174.264 83.385,174.206 83.024,173.949 83.693 M173.455 85.918 C 173.370 86.139,173.310 86.505,173.322 86.732 C 173.333 86.959,173.441 86.816,173.561 86.415 C 173.794 85.635,173.711 85.249,173.455 85.918 M237.150 87.021 C 237.150 87.633,237.198 87.883,237.257 87.577 C 237.316 87.271,237.316 86.771,237.257 86.465 C 237.198 86.159,237.150 86.409,237.150 87.021 M172.960 88.143 C 172.875 88.364,172.815 88.730,172.827 88.957 C 172.839 89.184,172.946 89.041,173.066 88.640 C 173.299 87.860,173.217 87.474,172.960 88.143 M237.384 89.246 C 237.381 89.586,237.468 90.142,237.577 90.482 C 237.843 91.313,237.843 90.415,237.577 89.370 C 237.408 88.703,237.388 88.691,237.384 89.246 M172.470 90.287 C 172.386 90.598,172.330 91.187,172.344 91.595 C 172.362 92.106,172.433 91.956,172.575 91.108 C 172.791 89.816,172.728 89.324,172.470 90.287 M253.559 90.482 C 253.754 91.548,253.895 91.749,253.890 90.956 C 253.888 90.627,253.777 90.192,253.643 89.988 C 253.472 89.727,253.447 89.873,253.559 90.482 M253.948 93.696 C 253.950 94.036,254.037 94.648,254.141 95.056 L 254.330 95.797 254.334 95.056 C 254.337 94.648,254.250 94.036,254.141 93.696 L 253.943 93.078 253.948 93.696 M171.975 94.490 C 171.892 94.801,171.836 95.445,171.851 95.921 C 171.872 96.582,171.925 96.465,172.076 95.427 C 172.282 94.000,172.232 93.531,171.975 94.490 M238.323 96.065 C 238.325 96.598,238.424 97.187,238.543 97.376 C 238.676 97.585,238.710 97.249,238.630 96.510 C 238.468 95.004,238.318 94.786,238.323 96.065 M254.568 99.382 C 254.643 100.402,254.744 101.282,254.793 101.339 C 254.979 101.554,254.838 98.494,254.640 98.022 C 254.518 97.730,254.488 98.286,254.568 99.382 M171.479 98.910 C 171.393 99.339,171.339 100.595,171.358 101.700 L 171.394 103.708 171.588 100.992 C 171.788 98.201,171.753 97.539,171.479 98.910 M254.975 107.417 C 254.976 108.912,255.016 109.492,255.066 108.705 C 255.115 107.919,255.114 106.695,255.065 105.986 C 255.015 105.277,254.974 105.921,254.975 107.417 M171.347 113.370 C 171.361 114.583,171.459 115.853,171.564 116.193 C 171.670 116.533,171.700 115.587,171.629 114.091 C 171.474 110.773,171.314 110.364,171.347 113.370 M238.477 113.773 C 238.394 114.084,238.344 115.507,238.366 116.934 L 238.407 119.530 238.557 116.440 C 238.719 113.129,238.712 112.898,238.477 113.773 M254.680 114.493 C 254.655 115.122,254.580 116.012,254.513 116.471 L 254.390 117.305 254.649 116.480 C 254.791 116.026,254.867 115.136,254.816 114.503 L 254.724 113.350 254.680 114.493 M171.834 119.056 C 171.844 119.589,171.951 120.247,172.073 120.519 C 172.217 120.842,172.242 120.542,172.146 119.654 C 171.967 118.021,171.810 117.719,171.834 119.056 M254.029 120.283 C 253.934 120.914,253.907 121.480,253.969 121.542 C 254.031 121.604,254.159 121.139,254.253 120.508 C 254.348 119.877,254.375 119.311,254.313 119.249 C 254.251 119.187,254.123 119.653,254.029 120.283 M172.329 123.383 C 172.338 123.847,172.448 124.450,172.571 124.722 C 172.723 125.055,172.747 124.812,172.646 123.980 C 172.467 122.508,172.305 122.203,172.329 123.383 M253.680 123.775 C 253.662 124.069,253.582 124.514,253.504 124.763 C 253.370 125.192,253.377 125.193,253.644 124.777 C 253.799 124.535,253.878 124.090,253.820 123.788 C 253.714 123.239,253.714 123.239,253.680 123.775 M236.683 125.696 C 236.608 125.892,236.590 126.254,236.643 126.500 C 236.704 126.779,236.788 126.645,236.869 126.143 C 237.003 125.301,236.916 125.090,236.683 125.696 M233.673 129.666 C 233.641 131.434,233.553 133.158,233.478 133.498 C 233.363 134.017,233.384 134.048,233.612 133.693 C 233.785 133.422,233.856 132.042,233.807 129.861 L 233.730 126.452 233.673 129.666 M173.304 128.204 C 173.306 128.464,173.421 128.844,173.559 129.048 C 173.742 129.319,173.765 129.219,173.644 128.677 C 173.441 127.768,173.299 127.571,173.304 128.204 M173.799 130.305 C 173.801 130.633,173.912 131.069,174.045 131.273 C 174.216 131.534,174.241 131.387,174.130 130.779 C 173.934 129.713,173.794 129.511,173.799 130.305 M252.192 130.573 C 252.176 130.800,252.099 131.189,252.021 131.438 C 251.886 131.868,251.893 131.868,252.161 131.451 C 252.317 131.209,252.393 130.819,252.332 130.586 C 252.232 130.203,252.218 130.202,252.192 130.573 M234.895 131.315 C 234.875 131.678,234.794 132.178,234.716 132.427 C 234.581 132.855,234.589 132.856,234.855 132.441 C 235.010 132.200,235.091 131.699,235.034 131.329 L 234.932 130.655 234.895 131.315 M251.697 132.551 C 251.682 132.778,251.605 133.167,251.526 133.416 C 251.392 133.845,251.399 133.846,251.667 133.429 C 251.822 133.186,251.899 132.797,251.838 132.563 C 251.737 132.181,251.723 132.179,251.697 132.551 M251.203 134.281 C 251.187 134.508,251.110 134.898,251.032 135.147 C 250.897 135.576,250.904 135.577,251.172 135.159 C 251.328 134.917,251.405 134.528,251.343 134.294 C 251.243 133.911,251.229 133.910,251.203 134.281 M250.709 135.888 C 250.693 136.047,250.608 136.381,250.520 136.630 C 250.396 136.981,250.429 137.019,250.667 136.800 C 250.835 136.645,250.920 136.311,250.855 136.058 C 250.790 135.806,250.724 135.729,250.709 135.888 M250.214 137.495 C 250.198 137.722,250.121 138.111,250.043 138.360 C 249.908 138.790,249.916 138.790,250.183 138.373 C 250.339 138.131,250.416 137.741,250.354 137.508 C 250.254 137.125,250.240 137.124,250.214 137.495 M249.131 140.912 C 248.917 141.457,248.794 141.904,248.858 141.904 C 249.025 141.904,249.739 140.139,249.620 140.020 C 249.566 139.965,249.346 140.367,249.131 140.912 M245.603 148.640 L 245.211 149.444 245.715 148.826 C 246.200 148.231,246.359 147.837,246.113 147.837 C 246.048 147.837,245.819 148.198,245.603 148.640 M244.161 151.360 L 243.716 152.163 244.226 151.545 C 244.678 150.997,244.879 150.556,244.676 150.556 C 244.638 150.556,244.406 150.918,244.161 151.360 M182.571 152.534 C 182.782 152.942,183.010 153.276,183.078 153.276 C 183.146 153.276,183.029 152.942,182.818 152.534 C 182.607 152.126,182.379 151.792,182.311 151.792 C 182.243 151.792,182.360 152.126,182.571 152.534 M241.641 155.419 C 241.260 155.918,241.075 156.249,241.229 156.154 C 241.546 155.958,242.616 154.512,242.444 154.512 C 242.383 154.512,242.022 154.920,241.641 155.419 M184.855 156.057 C 184.988 156.227,185.714 157.200,186.467 158.220 C 187.221 159.240,188.432 160.630,189.160 161.309 C 190.472 162.535,190.471 162.533,188.979 160.939 C 188.152 160.055,186.890 158.526,186.174 157.540 C 185.458 156.554,184.814 155.748,184.742 155.748 C 184.671 155.748,184.721 155.887,184.855 156.057 M238.085 160.028 L 236.739 161.557 237.919 160.445 C 238.894 159.525,239.787 158.419,239.502 158.483 C 239.463 158.492,238.826 159.187,238.085 160.028 M193.058 165.232 C 193.387 165.637,194.314 166.250,194.314 166.063 C 194.314 166.015,193.952 165.712,193.511 165.389 C 193.013 165.025,192.841 164.965,193.058 165.232 M230.037 167.400 C 228.575 168.494,228.382 168.792,229.715 167.895 C 230.354 167.465,230.945 167.004,231.028 166.869 C 231.245 166.518,231.139 166.575,230.037 167.400 M196.663 167.964 C 197.070 168.314,197.506 168.601,197.631 168.602 C 197.899 168.603,197.896 168.601,196.786 167.885 L 195.921 167.326 196.663 167.964 M227.627 168.992 C 226.702 169.493,226.759 169.702,227.689 169.221 C 228.096 169.010,228.430 168.785,228.430 168.720 C 228.430 168.561,228.404 168.570,227.627 168.992 M219.654 172.311 C 219.342 172.445,219.297 172.524,219.530 172.524 C 219.734 172.524,220.124 172.428,220.396 172.311 C 220.707 172.178,220.753 172.099,220.519 172.099 C 220.315 172.099,219.926 172.195,219.654 172.311 M213.226 173.053 L 209.023 173.195 213.103 173.244 C 215.408 173.272,217.343 173.189,217.553 173.053 C 217.756 172.921,217.812 172.836,217.676 172.862 C 217.540 172.889,215.538 172.975,213.226 173.053 " stroke="none" fill="#ecd4fc" fill-rule="evenodd"></path></g></svg>