<?xml version="1.0" encoding="UTF-8" standalone="no"?>
<!-- Created with Inkscape (http://www.inkscape.org/) -->

<svg
   xmlns:dc="http://purl.org/dc/elements/1.1/"
   xmlns:cc="http://creativecommons.org/ns#"
   xmlns:rdf="http://www.w3.org/1999/02/22-rdf-syntax-ns#"
   xmlns:svg="http://www.w3.org/2000/svg"
   xmlns="http://www.w3.org/2000/svg"
   version="1.1"
   width="40"
   height="48"
   id="svg2">
  <style>
    .small { font: italic 13px sans-serif; }
    .heavy { font: bold 30px sans-serif; }
  </style>
  <defs
     id="defs4" />
  <metadata
     id="metadata7">
  </metadata>
  <g
     transform="translate(-143.85715,-391.8265)"
     id="layer1">
    <g
       transform="translate(58.571429,1.0714286)"
       id="g3193">
      <path
         d="m 105.28572,438.75507 -4,0 0,-2 0,-2 -1.999999,0 -2,0 0,-2 0,-2 -2,0 -2,0 0,-2 0,-2 -2,0 -2,0 0,-2 0,-2 -2,0 -2,0 0,-8 0,-8 2,0 2,0 0,-2 0,-2 2,0 2,0 0,-2 0,-2 2,0 2,0 0,-2 0,-2 2,0 1.999999,0 0,-2 0,-2 4,0 4,0 0,2 0,2 2,0 2,0 0,2 0,2 2,0 2,0 0,2 0,2 2,0 2,0 0,2 0,2 2,0 2,0 0,8 0,8 -2,0 -2,0 0,2 0,2 -2,0 -2,0 0,2 0,2 -2,0 -2,0 0,2 0,2 -2,0 -2,0 0,2 0,2 -4,0 z"
         id="path3205"
         style="fill:#feba3b" />
      <path
         d="m 105.28572,438.75507 -4,0 0,-2 0,-2 -1.999999,0 -2,0 0,-2 0,-2 -2,0 -2,0 0,-2 0,-2 -2,0 -2,0 0,-2 0,-2 -2,0 -2,0 0,-8 0,-8 2,0 2,0 0,-2 0,-2 2,0 2,0 0,-2 0,-2 2,0 2,0 0,-2 0,-2 2,0 1.999999,0 0,-2 0,-2 4,0 4,0 0,2 0,2 2,0 2,0 0,2 0,2 2,0 2,0 0,2 0,2 2,0 2,0 0,2 0,2 2,0 2,0 0,8 0,8 -2,0 -2,0 0,2 0,2 -2,0 -2,0 0,2 0,2 -2,0 -2,0 0,2 0,2 -2,0 -2,0 0,2 0,2 -4,0 z m -2,-16 2,0 0,-2 0,-2 2,0 2,0 0,-2 0,-2 -2,0 -2,0 0,-2 0,-2 2,0 2,0 0,-2 0,-2 2,0 2,0 0,-2 0,-2 -2,0 -2,0 0,-2 0,-2 -2,0 -2,0 0,2 0,2 2,0 2,0 0,2 0,2 -2,0 -2,0 0,2 0,2 -2,0 -2,0 0,2 0,2 2,0 2,0 0,2 0,2 -2,0 -2,0 0,2 0,2 2,0 z"
         id="path3203"
         style="fill:#fe9c1d" />
      <path
         d="m 105.28572,438.75507 -4,0 0,-2 0,-2 -1.999999,0 -2,0 0,-2 0,-2 -2,0 -2,0 0,-2 0,-2 -2,0 -2,0 0,-2 0,-2 -2,0 -2,0 0,-8 0,-8 2,0 2,0 0,-2 0,-2 2,0 2,0 0,-2 0,-2 2,0 2,0 0,-2 0,-2 2,0 1.999999,0 0,-2 0,-2 4,0 4,0 0,2 0,2 2,0 2,0 0,2 0,2 2,0 2,0 0,2 0,2 2,0 2,0 0,2 0,2 2,0 2,0 0,8 0,8 -2,0 -2,0 0,2 0,2 -2,0 -2,0 0,2 0,2 -2,0 -2,0 0,2 0,2 -2,0 -2,0 0,2 0,2 -4,0 z m -2,-8 2,0 0,-2 0,-2 -2,0 -2,0 0,-2 0,-2 2,0 2,0 0,-2 0,-2 2,0 2,0 0,-2 0,-2 -2,0 -2,0 0,-2 0,-2 2,0 2,0 0,-2 0,-2 2,0 2,0 0,-2 0,-2 -2,0 -2,0 0,-2 0,-2 -2,0 -2,0 0,2 0,2 2,0 2,0 0,2 0,2 -2,0 -2,0 0,2 0,2 -2,0 -2,0 0,2 0,2 2,0 2,0 0,2 0,2 -2,0 -2,0 0,2 0,2 -1.999999,0 -2,0 0,-2 0,-2 -2,0 -2,0 0,2 0,2 2,0 2,0 0,2 0,2 2,0 1.999999,0 0,2 0,2 2,0 z"
         id="path3201"
         style="fill:#f17e00" />
      <path
         d="m 105.28572,438.75507 -4,0 0,-2 0,-2 -1.999999,0 -2,0 0,-2 0,-2 -2,0 -2,0 0,-2 0,-2 -2,0 -2,0 0,-2 0,-2 -2,0 -2,0 0,-8 0,-8 2,0 2,0 0,-2 0,-2 2,0 2,0 0,-2 0,-2 2,0 2,0 0,-2 0,-2 2,0 1.999999,0 0,-2 0,-2 4,0 4,0 0,2 0,2 2,0 2,0 0,2 0,2 2,0 2,0 0,2 0,2 2,0 2,0 0,2 0,2 2,0 2,0 0,8 0,8 -2,0 -2,0 0,2 0,2 -2,0 -2,0 0,2 0,2 -2,0 -2,0 0,2 0,2 -2,0 -2,0 0,2 0,2 -4,0 z m 0,-8 4,0 0,-2 0,-2 2,0 2,0 0,-2 0,-2 2,0 2,0 0,-8 0,-8 -2,0 -2,0 0,-2 0,-2 -2,0 -2,0 0,-2 0,-2 -4,0 -4,0 0,2 0,2 -1.999999,0 -2,0 0,2 0,2 -2,0 -2,0 0,8 0,8 2,0 2,0 0,2 0,2 2,0 1.999999,0 0,2 0,2 4,0 z m 0,-4 -4,0 0,-2 0,-2 -1.999999,0 -2,0 0,-8 0,-8 2,0 1.999999,0 0,-2 0,-2 4,0 4,0 0,2 0,2 2,0 2,0 0,8 0,8 -2,0 -2,0 0,2 0,2 -4,0 z m 0,-4 4,0 0,-8 0,-8 -4,0 -4,0 0,8 0,8 4,0 z"
         id="path3199"
         style="fill:#b54200" />
      <path
         d="m 105.28572,438.75507 -4,0 0,-2 0,-2 -1.999999,0 -2,0 0,-2 0,-2 -2,0 -2,0 0,-2 0,-2 -2,0 -2,0 0,-2 0,-2 -2,0 -2,0 0,-8 0,-8 2,0 2,0 0,-2 0,-2 2,0 2,0 0,-2 0,-2 2,0 2,0 0,-2 0,-2 2,0 1.999999,0 0,-2 0,-2 4,0 4,0 0,2 0,2 2,0 2,0 0,2 0,2 2,0 2,0 0,2 0,2 2,0 2,0 0,2 0,2 2,0 2,0 0,8 0,8 -2,0 -2,0 0,2 0,2 -2,0 -2,0 0,2 0,2 -2,0 -2,0 0,2 0,2 -2,0 -2,0 0,2 0,2 -4,0 z m 0,-4 4,0 0,-2 0,-2 2,0 2,0 0,-2 0,-2 2,0 2,0 0,-2 0,-2 2,0 2,0 0,-8 0,-8 -2,0 -2,0 0,-2 0,-2 -2,0 -2,0 0,-2 0,-2 -2,0 -2,0 0,-2 0,-2 -4,0 -4,0 0,2 0,2 -1.999999,0 -2,0 0,4 0,4 -4,0 -4,0 0,8 0,8 2,0 2,0 0,2 0,2 2,0 2,0 0,2 0,2 2,0 1.999999,0 0,2 0,2 4,0 z"
         id="path3197"
         style="fill:#a44200" />
      <path
         d="m 105.28572,438.75507 -4,0 0,-2 0,-2 -1.999999,0 -2,0 0,-2 0,-2 -2,0 -2,0 0,-2 0,-2 -2,0 -2,0 0,-2 0,-2 -2,0 -2,0 0,-8 0,-8 2,0 2,0 0,-2 0,-2 2,0 2,0 0,-2 0,-2 2,0 2,0 0,-2 0,-2 2,0 1.999999,0 0,-2 0,-2 4,0 4,0 0,2 0,2 2,0 2,0 0,2 0,2 2,0 2,0 0,2 0,2 2,0 2,0 0,2 0,2 2,0 2,0 0,8 0,8 -2,0 -2,0 0,2 0,2 -2,0 -2,0 0,2 0,2 -2,0 -2,0 0,2 0,2 -2,0 -2,0 0,2 0,2 -4,0 z m 0,-4 4,0 0,-2 0,-2 2,0 2,0 0,-2 0,-2 2,0 2,0 0,-2 0,-2 2,0 2,0 0,-8 0,-8 -2,0 -2,0 0,-2 0,-2 -2,0 -2,0 0,-2 0,-2 -2,0 -2,0 0,-2 0,-2 -4,0 -4,0 0,2 0,2 -1.999999,0 -2,0 0,2 0,2 -2,0 -2,0 0,2 0,2 -2,0 -2,0 0,8 0,8 2,0 2,0 0,2 0,2 2,0 2,0 0,2 0,2 2,0 1.999999,0 0,2 0,2 4,0 z"
         id="path3195"
         style="fill:#000000" />
    </g>
  </g>
  <text x="0" y="0" class="small">#1 sdsd sd sd sd sd </text>
</svg>
